<svg width="100" height="100" viewBox="0 0 100 100" fill="none" xmlns="http://www.w3.org/2000/svg">
<path d="M0 0H99.9998V100H0V0Z" fill="white"/>
<path d="M67 78.5005C65.5487 81.6545 20.6405 88.2461 18.7267 85.9037C18.4176 85.5254 17.7852 81.7752 17.0681 76.4445C16.7532 74.1039 16.422 71.4586 16.0947 68.6601C14.4236 54.3736 12.8535 36.0975 14.0719 34.0101C15.0614 32.315 25.3006 30.7422 30.0009 30.0012" stroke="#C4CDD5" stroke-width="1.5" stroke-linecap="round" stroke-linejoin="round" stroke-dasharray="3 5"/>
<path d="M44.7185 20.9889C48.0814 18.3246 80.5618 22.1324 83.7111 27.1756C86.8605 32.2188 81.9171 63.288 79.4757 67.7678C77.0343 72.2477 42.8671 65.3876 38.3146 61.237C33.7621 57.0864 41.3556 23.6531 44.7185 20.9889Z" fill="#F4F6F8"/>
<path d="M32.2295 36.3021C32.4853 34.9716 32.9328 32.6437 33.5721 29.3185C34.3376 25.7653 35.6465 16.1444 36.907 14.4242C39.6525 12.1444 51.6211 14.8024 63.6001 16.9557C74.6055 18.934 85.2866 20.182 85.8612 23.0336C86.1765 24.598 84.0513 41.0178 82.7613 50.159C81.2449 60.9047 79.7031 71.5297 77.6287 73.6534C75.4913 75.8415 29.974 67.7938 28.5744 65.4763C28.3483 65.102 28.4627 59.4803 28.91 55.0484M30.1917 46.902C30.67 44.4139 30.9259 42.6342 31.1651 41.3902L30.1917 46.902Z" stroke="#919EAB" stroke-width="1.5" stroke-linecap="round" stroke-linejoin="round"/>
<path d="M39.7853 18.5537C41.4429 17.7995 80.4971 23.3965 81.9169 25.4099C83.3368 27.4232 76.9358 68.0291 75.2607 69.2944C73.5857 70.5597 33.4899 63.0583 32.5516 61.4065C31.987 60.4125 33.6054 48.383 35.2875 38.7262C35.6728 36.5141 36.0614 34.4265 36.4279 32.6246C37.1204 29.2204 38.8816 18.9649 39.7853 18.5537Z" stroke="#919EAB" stroke-width="1.5"/>
<path d="M39.918 49.3496L47.9702 50.6272M52.4939 51.345L72.5103 54.5208" stroke="#919EAB" stroke-width="1.5" stroke-linecap="round" stroke-linejoin="round"/>
<path d="M39.1348 54.2871L56.3896 57.0248M60.9133 57.7426L71.7271 59.4583" stroke="#919EAB" stroke-width="1.5" stroke-linecap="round" stroke-linejoin="round"/>
<path d="M49.1332 39.1655C46.7933 37.7925 54.1824 31.2598 56.2513 30.8056C58.3203 30.3513 58.0356 36.3089 60.2552 37.2977C62.4748 38.2865 65.9826 34.1688 67.3196 35.0002C68.6566 35.8315 70.2745 40.4068 69.2467 41.4515C68.2189 42.4962 51.473 40.5385 49.1332 39.1655Z" fill="#C4CDD5"/>
<path d="M49.2947 34.7859C52.5006 31.7594 54.483 30.3622 55.2416 30.5943C56.7002 31.0406 58.5845 38.2988 59.9026 38.7873C61.2207 39.2758 65.401 35.4883 66.4988 36.2551C67.2307 36.7663 68.2801 38.2078 69.6471 40.5794M46.2933 37.7323C46.842 37.1797 47.2464 36.7746 47.5067 36.5171L46.2933 37.7323Z" stroke="#919EAB" stroke-width="1.5" stroke-linecap="round" stroke-linejoin="round"/>
<path d="M64.9041 31.521C65.7926 31.6077 66.2466 30.7279 66.3452 29.7223C66.4438 28.7166 65.8668 27.1843 64.9783 27.0976C64.0897 27.011 63.5563 27.9882 63.4143 29.4365C63.2723 30.8848 64.0155 31.4344 64.9041 31.521Z" fill="white"/>
<path d="M63.5508 31.4473C64.6786 31.5573 65.3329 30.8749 65.4123 30.0657C65.4916 29.2566 65.0452 28.1469 63.8855 28.0339C62.7257 27.9208 62.0948 28.6928 62.0057 29.6019C61.9166 30.511 62.423 31.3373 63.5508 31.4473Z" stroke="#919EAB" stroke-width="1.5"/>
</svg>
