<svg width="100" height="100" viewBox="0 0 100 100" fill="none" xmlns="http://www.w3.org/2000/svg">
<path d="M82.1259 73.2825C82.2122 76.8866 81.9571 79.6088 81.0924 80.7461C79.1108 83.3527 19.4528 88.6829 17.1095 86.8698C16.731 86.577 16.0802 83.5744 15.387 79.2989C15.0826 77.4215 14.77 75.2988 14.4688 73.0523C12.9307 61.5834 11.6868 46.8886 13.3272 45.1529C14.6593 43.7434 14.7976 43.9089 20.8222 43.1176" stroke="#C4CDD5" stroke-width="1.5" stroke-linecap="round" stroke-linejoin="round" stroke-dasharray="3 5"/>
<path d="M41.955 19.2527C45.9037 16.9918 85.518 22.0408 89.5925 26.7844C93.667 31.528 89.2185 59.5647 86.479 63.523C83.7394 67.4813 41.9254 59.5721 36.1923 55.5725C30.4592 51.5729 38.0063 21.5136 41.955 19.2527Z" fill="#F4F6F8"/>
<path d="M28.4604 28.326C28.7266 26.9971 29.1925 24.6721 29.8578 21.351C30.6718 17.8053 30.6718 16.0769 32.1784 14.395C35.519 12.2081 50.5887 15.3496 65.6512 17.9837C79.4895 20.4037 92.8929 22.0761 93.7261 24.9681C94.1831 26.5546 93.4363 35.0927 92.1915 44.2409C90.7281 54.995 89.2282 65.6264 86.7202 67.6825C84.1361 69.801 26.9079 59.9273 25.0648 57.5407C24.7671 57.1552 24.6839 51.5027 25.0648 47.0604M26.3393 38.9129C26.8372 36.4278 27.0855 34.647 27.3344 33.4044L26.3393 38.9129Z" stroke="#919EAB" stroke-width="1.5" stroke-linecap="round" stroke-linejoin="round"/>
<path d="M39.6247 52.2313C35.1132 49.2087 50.6567 37.0368 54.8449 36.3759C59.0331 35.715 57.7538 47.5853 62.071 49.8257C66.3882 52.0662 73.8883 44.2568 76.4607 46.0774C79.0331 47.8981 81.7203 57.2331 79.542 59.198C77.3636 61.1628 44.1363 55.2539 39.6247 52.2313Z" fill="#C4CDD5"/>
<path d="M35.9368 18.6393C37.9788 17.945 87.0285 25.1006 88.8846 27.182C90.7407 29.2633 85.6215 61.9725 83.5784 63.1804C81.5352 64.3883 31.1067 55.2758 29.8672 53.577C29.1213 52.5548 30.6605 40.513 32.3748 30.8611C32.7675 28.6502 33.1694 26.5647 33.5551 24.7657C34.2838 21.3671 34.8236 19.0178 35.9368 18.6393Z" stroke="#919EAB" stroke-width="1.5"/>
<path d="M40.4685 43.501C47.2355 37.8359 51.3631 35.2805 52.8513 35.8348C55.7126 36.9005 58.612 51.6282 61.1875 52.7615C63.763 53.8948 72.5677 46.8254 74.6698 48.4886C76.0712 49.5973 77.9962 52.6027 80.4448 57.5047M34.1199 49.0303C35.2822 47.9915 36.1387 47.2304 36.6893 46.7469L34.1199 49.0303Z" stroke="#919EAB" stroke-width="1.5" stroke-linecap="round" stroke-linejoin="round"/>
<path d="M72.0451 38.8368C73.8102 39.1159 74.8222 37.4121 75.1392 35.4144C75.4561 33.4167 74.4861 30.2861 72.721 30.007C70.9559 29.7279 69.7734 31.6169 69.3169 34.4939C68.8605 37.3708 70.28 38.5577 72.0451 38.8368Z" fill="white"/>
<path d="M69.3507 38.5271C71.5912 38.8813 72.98 37.5958 73.235 35.9884C73.4901 34.3811 72.7305 32.1107 70.4266 31.7464C68.1227 31.3822 66.7701 32.8495 66.4835 34.6554C66.197 36.4613 67.1103 38.1728 69.3507 38.5271Z" stroke="#919EAB" stroke-width="1.5"/>
</svg>
