<svg width="92" height="90" viewBox="0 0 92 90" fill="none" xmlns="http://www.w3.org/2000/svg">
<path d="M78.1249 63.2823C78.2112 66.8864 77.9561 69.6086 77.0915 70.7459C75.1098 73.3526 15.4518 78.6827 13.1085 76.8696C12.7301 76.5768 12.0792 73.5742 11.386 69.2987C11.0816 67.4214 10.7691 65.2986 10.4678 63.0522C8.9297 51.5833 7.68584 36.8884 9.32623 35.1527C10.6584 33.7432 10.7966 33.9087 16.8212 33.1174" stroke="#C4CDD5" stroke-width="1.5" stroke-linecap="round" stroke-linejoin="round" stroke-dasharray="3 5"/>
<path d="M37.955 9.25304C41.9037 6.99212 81.518 12.0411 85.5925 16.7847C89.667 21.5284 85.2185 49.565 82.479 53.5234C79.7394 57.4817 37.9254 49.5724 32.1923 45.5728C26.4592 41.5732 34.0063 11.514 37.955 9.25304Z" fill="#F4F6F8"/>
<path d="M24.4604 18.3258C24.7266 16.9969 25.1925 14.6719 25.8578 11.3508C26.6718 7.80513 26.6718 6.0767 28.1784 4.39488C31.519 2.20792 46.5887 5.34942 61.6512 7.98351C75.4895 10.4035 88.8929 12.076 89.7261 14.9679C90.1831 16.5544 89.4363 25.0926 88.1915 34.2408C86.7281 44.9948 85.2282 55.6263 82.7202 57.6824C80.1361 59.8008 22.9079 49.9272 21.0648 47.5406C20.7671 47.1551 20.6839 41.5026 21.0648 37.0603M22.3393 28.9127C22.8372 26.4277 23.0855 24.6468 23.3344 23.4043L22.3393 28.9127Z" stroke="#919EAB" stroke-width="1.5" stroke-linecap="round" stroke-linejoin="round"/>
<path d="M35.6267 42.2312C31.1151 39.2087 46.6587 27.0367 50.8469 26.3758C55.0351 25.715 53.7557 37.5852 58.0729 39.8257C62.3901 42.0662 69.8903 34.2568 72.4627 36.0774C75.0351 37.898 77.7223 47.233 75.5439 49.1979C73.3656 51.1628 40.1382 45.2538 35.6267 42.2312Z" fill="#C4CDD5"/>
<path d="M31.9339 8.63928C33.9759 7.94496 83.0255 15.1005 84.8816 17.1819C86.7377 19.2633 81.6186 51.9724 79.5754 53.1803C77.5323 54.3882 27.1038 45.2758 25.8643 43.577C25.1184 42.5547 26.6576 30.5129 28.3719 20.861C28.7646 18.6501 29.1665 16.5646 29.5522 14.7657C30.2808 11.3671 30.8207 9.01779 31.9339 8.63928Z" stroke="#919EAB" stroke-width="1.5"/>
<path d="M36.4656 33.5014C43.2326 27.8363 47.3602 25.2809 48.8484 25.8352C51.7097 26.901 54.609 41.6287 57.1846 42.762C59.7601 43.8953 68.5647 36.8258 70.6668 38.489C72.0682 39.5978 73.9933 42.6031 76.4419 47.5051M30.1169 39.0307C31.2792 37.9919 32.1357 37.2308 32.6864 36.7473L30.1169 39.0307Z" stroke="#919EAB" stroke-width="1.5" stroke-linecap="round" stroke-linejoin="round"/>
<path d="M68.0442 28.8367C69.8093 29.1158 70.8212 27.412 71.1382 25.4143C71.4552 23.4167 70.4851 20.286 68.72 20.007C66.9549 19.7279 65.7724 21.6169 65.316 24.4938C64.8595 27.3708 66.2791 28.5577 68.0442 28.8367Z" fill="white"/>
<path d="M65.3517 28.5275C67.5922 28.8817 68.981 27.5962 69.236 25.9889C69.491 24.3815 68.7315 22.1111 66.4276 21.7469C64.1236 21.3826 62.771 22.8499 62.4845 24.6558C62.198 26.4617 63.1113 28.1733 65.3517 28.5275Z" stroke="#919EAB" stroke-width="1.5"/>
</svg>
